<mxfile host="65bd71144e">
    <diagram id="C5QILVNkvvuNuXXDEJSs" name="Page-1">
        <mxGraphModel dx="662" dy="294" grid="1" gridSize="10" guides="1" tooltips="1" connect="1" arrows="1" fold="1" page="1" pageScale="1" pageWidth="850" pageHeight="1100" math="0" shadow="0">
            <root>
                <mxCell id="0"/>
                <mxCell id="1" parent="0"/>
                <mxCell id="2" value="" style="shape=image;verticalLabelPosition=bottom;labelBackgroundColor=default;verticalAlign=top;aspect=fixed;imageAspect=0;image=data:image/png,iVBORw0KGgoAAAANSUhEUgAAAYgAAAJcCAYAAADjBDOCAAAAAXNSR0IArs4c6QAAAARnQU1BAACxjwv8YQUAAAAJcEhZcwAADsMAAA7DAcdvqGQAAAAhdEVYdENyZWF0aW9uIFRpbWUAMjAyMzowNzozMSAxODo0NTo0OBAowC0AAFwzSURBVHhe7d0PXFzVnTf+D21N1FZrlNihklT01aXhaRVo3AbYShdlSiPZbqFpaLC1SdRuiFnYwm5/Cq1/FtbHFlx40sB22yT1UWJihP4BU3aw7NJ9AtkaGepuSXl1U9aIQiM1GlubxCq/c849d+bOcAYGAmT+fN6v103uPXe4MzDn3u8533NnTsKkACIioiDv0P8TEREFYIAgIiIjBggiIjJigCAiIiMGCCIiMmKAICIiIwYIIiIyYoAgIiIjBggiIjJigCAiIiN+1QaF7eSJs/j1f/5eb1EsuuYj78ayK5foLYp3DBAUNhkgPI+dwPs/+G5dQrHkpV/9Hu5br2SAIB8GCAqbHSBuvi1Zl1AsefqRUQYICsAxCCIiMmKAICIiIwYIIiIyYoAgIiIjBggiIjJigCAiIiMGCCIiMmKAICIiIwYIIiIyYoAgCls/WlIT0DKoN4liHAME0RTj6ChPQGpzv94OYbAOqanF6BjX20QxhgGCKGxZ2Do8ia3pepMoxjFAUHQTrXg75eNtroPXWlW8zaIXkGovzpa+TBWJx6oegL3f/7Pe5iRUdYmVpmxrn+xJjO/Fdudx5PaGGrHSjqpcu9yUgrJ6I9s75Q+J/XavxPG6iSIVAwRFrYnOYqTuScH6dOsivHvlFmTofTI4lKAPw6LFr5b9meJC7gwSNSjpy9P7x1BfILb1xTujTG6LlXL982VZgGsjdvS2wq0eIcjt/bVipQj1vfIYbVjnysL6hiI07tmLCetRIj70wNNVBPdql9gQ+1fWI7Vc7E/fguQ9duAgikwMEBSdxh/H/d3FONS0EejcBk/+GHYUyouw3LcXu5vEhbtIXNht4oJcX9AOzxH/Bbki297vQlZ+ETA84r+wz1Hi6mK4u9rQr59m4kgbPOVVInhY24mFbTiU34b7O4F1TWNwd2/DwGvWPqJIwwBB0cn1edwrLrQ5ojWOwp3iQpsU1Bq3Uz/2otNGC030LDaX24FoHP3d7Y5AZPV6ckRgu7cQoteTJALbTmS+V+8kijAMEBS1ZGt8eNMIDgy6RGt8EpuP73KMQdipn8DF18tYQBnZtfB092BCpZdqscY3qN2PA8erMCx6PYmDuzC6aXFeD9FcMUBQdEuv9t1VlFFWbY1B6FZ81YPOsYC9aAk73+9Ccqr4b6aUkysFbtFTGQ0+bHoeKrracKBdppfyfOMi6i4oOZ4hOV43UaRigKCYlFE2iX2ppcixU0y5bcAsZkrNKOsTF3n75wPvjvIRgeheOSi9wXoOf4orC2tEgGpsQuA4CFGU4ZzUFDbOST0L8hbaPSlqED1RF0U6zklNwdiDIJp34+jYUwN3fl7UBAciEwYIovmkPnwn705y3HZLFKUYIIjmU3r1ot0tRbTQGCCIiMiIAYKIiIwYIIiIyIgBgoiIjBggiIjIiAGCiIiMGCCIiMiIAYKIiIwYIIiIyIgBgoiIjBggiIjIiAGC4tdED1rvuwVrc6wpSddurULHr17VO4mIAYLi04t7UfXpm/DA4wdxTE0bN45jPQ2o+sEAzqgHEBEDBMWhETx5Xyk6JlzIvbsPzzwn56v+A37yjY0o/WgmlupHEcU7BgiKP0fb0fpTIPH2Vuz4UhYuVRHhQiR/ehe+uuYy9RA8vwu32dOVpl6Dknsa4D1p7QL60SLL76rB7m/egpvE+vqaJ/Q+otjBAEFx59TYCIbE/5+c0lu4EEsv1qsfSEOGXpU9Dm9bFUqaDuKULlG66/DQdw9iVKx+rKDAKiOKIQwQFLeWLr1Qr5lkoWJYpp7E8sxPsHWVKHrci2PWTkviRtT3WI+p+rNLdSFR7GCAoLhz6ZVJaq7ow0ePWgU+p3HGHqE+2e+/w+mGm9AS/FBp9S3IukqvE8UgBgiKPx9eiy2iRzD0zW14oNOLU2/JwtMY7a7C9ke9Yv0oWv8qGw8MZuDrnbKHMIZ6ZpAoDjFAUBzKQOl9teJf0UuozMQNaXIg+iLcdNdO9Hb2YAiv4tSgeNjlSVi+TPx/agBDR+TP9eHY8/J/ovjAAEFxaWl6Nf65sxWb81apdBPgwrUf24Kv3l2KNGRhXUslck/UYq38AN39R5Fxd6UIKEcxOnFaPZooHiRMCnqdaFonT5yF57ETuPm2ZF1CseTpR0bhvvVKLLtyiS6heMceBBERGTFAEBGREQMEEREZMUAQEZERAwQRERkxQBARkREDBBERGTFAEBGRET8oR2GTH5T74T+NIfVP9ZwJFFOGf/YqPv1XSfygHPmwB0GzI5oTb789ySUGF/neEjmxB0Fh41dtxDZ+1QYFYw+CiIiMGCCIiMiIAYKIiIwYIIiIyIgBgoiIjBggiIjIiAGCiIiMGCCIiMiIAYKIiIwYIIiIyIgBgoiIjBggiIjIiAGCiIiMGCDoPOhHS2oCUn1LHbx6z6wM1s39Z8+jic5ipJbvxYTeno56bBT+jhQbGCBokY2jozwbjeV9GB6eFEsfKgpSsELv9TaLgBHmxZOIFhYDBC2u8R54uoCK7CxdkIWtTRuRqLdmJb1aBJhqZOhNIppfDBC0uFwpSBP/Nfb1W9sOMp1S0iRWukqRI1NPuifhS7OM78V2XT6sypy9DZm2Eo9RaSeZtpJLYGrGOo69z1paBvXOAFOPtb1zXJTL3o/9s4HHVj0f/djU1GJ0yIf7OH8uATmV7bpcs38ve2me+rchOh8YIGiRiR7D/lqgKVtdDK0LryWxsA37ysVKQSsOyfRTQM9iALvFdfVeXZ4qHnuooUjvs9WgpC9Pp67GUF8gtu2LrbjY51QC9b1y36TvedanW7unch6rD2mV29DSvAu4e+qxrcBWi33qsWLZn4mqXDtIyOCQhKpUO6Wmn9smg0NuG9z6daljD4u/DYMERQAGCFp8KjU0qS7wnsokESgCW+OhuItmTkX5U1cuZOWLADI8onoY3r4aERCKkeWy9mZkiyDVNYIXrE0j/7FSkFzQjqGVW7BO/bzz2P04IHoE7oYt/lRX+hYRQNrhOSIixOAuVHWJ4FFmHwtYsdIf2LztpfCUV+njSi6s2yQDaA8Hpum8Y4CgeRQ6BWMiewxqkFq01nc7ehJmmUj2XURnT12Uu9rQr5/GChj+wfFzlRbixU2MDsz8PLo35Vs2iNdGFAEYIGgeidZvk50qCXfwWLbO9eoCstJX7ajKtS7CKiU018HxGY1gtMtaS0zOnLGnAt8dXc6Fg+90/jFA0CKTvQxH70KlYIrgXm21wK2W/gwX1LkY34vdznGCebsAZ2FNOdC4x39r7kRnPRpRi82F4ndKz1M9JN9YSJCMola4RQ/COVjubfb/fVSAwQBGZ+pgES0ABghaZLJ1LS6YvnTKAOp723w5+MTCndYAsNoffDfQuXI8r1zm6fMWGWWT2Jeq77wSizUYbgegLGy1B559+x13Mbk2YkdvK4Y2+F9XiehVrbB/7/Rq3fMpxm/O6DKiRZIwKeh1ommdPHEWnsdO4ObbknVJNJO3smZjqGEMO2RLn/D0I6Nw33olll25RJdQvGMPguKDvJ3U2WMYH8GQ+C/U4DIRMUBQ3JAf0POngVJzS5G2fxJbQ34OgogYICg+uORXejjvEmJwIJoJAwQRERkxQBARkREDBBERGTFAEBGREQMEEREZMUAQEZERAwQRERkxQBARkREDBBERGTFAEBGREQMELbrACf79i3NOhLmxZrRzznMdHeQ3y87H7080vxgg6PwoaMUhx/ci8buRiCIPAwTFEGvK0+ib30FOKsQASZGHAYIii563wdtZ7E8/Bcz8ZqWRnKmp1FQ5RaeVppHbdqpmQhxje2d/wOMD00/+n1HLjDPMhX78rJ9LLvLn5e+rtv2z58kUXMtg4OMD00+zfd1Ec8MAQedHl2NuBnWBdxD7dmOnTj31oUJs368vtt7mJFTBTk+JfaLM3bAFGaoVbm07eSrrgbt1Gmt/rdjepi/E8iKbDezX+8Sipg0NebGd+fGhn0sGtWw0lvdZ+3pb4RalFZs2IlFPOSq3nRo39GCNfp5DDUVi2/4bhX4db6n9RPOHAYLOj4AxCHv+ZlsR3KvtNFEW1pSLi+/xEbHej8NNIiDk5yFxyr4QCoqRZR8qPU8EkHaMiov2RGc9GsVrWO9I62QUiQt1Vxv6dUveKazHh3gujPfA0yUCQnaWtc+VB3cBMKR2hlCe5/ubJK4uFgFkYMbX/cYfdQHRPGGAoHnkTP8E9QrmRQqSxYXV092jW+06YKxMUVuzFtCLEUtuKTx6l9FsH29zydnsRK+gr9/a1gFjztOdzvV1EM0SAwTNI2uQ2NwrmA/y+FbKybpAWmmbOQ9KG+6kGh5uw7pQh5vt432ysFWmkZqyfRd0NIzNfVA6xOu45F16P9E8YYCgqKJSLHYuXy5lOm0zS4mFVQFjG9JEZ51voDjYbB8fzNtuBQX7dc81qJ3r6yCaDQYIOj+C0yRiCfuDYnZLXC9z+2CcNaidVpnkO05ON5Cs904128dP5XH8rFzm9sG4c38dROFKmBT0OtG0Tp44C89jJ3DzbRF0ORqsQ+qGAdT3hpPqiRzytticykzsW5BU3Nw8/cgo3LdeiWVXLtElFO/Yg6CoYn3ewJFeGR0Q/2ZiruO9i8X6bIPeEF443g4UpGCF3iaKRAwQFF2SMwFneiXCWuFm41ixshaNG/zppZLhVhxq2qhv1yWKTEwxUdgiMsVE84YpJgrGHgQRERkxQBARkREDBBERGTFAEBGREQMEEREZMUAQEZERAwQRERkxQBARkREDBBERGTFAEBGREQMEEREZMUDQopPfbGp/aZ21LMT0pItgfC+2pxZzsh6KWQwQdH44ps081DCAkvK9ep7pGaiL8tTJdlTQCfcYEcL4mkP8fkTnAwMEnXeJ8iu8u0bwgt4mosjAAEHnnbevJmDyHDkpUEAKqrlf7+lHS24pPGLNnltBtrTl40uaRKE9jamzVa5b5FOP5WjBy1np1L7voEX8H9h6H0dH+fTTmnoeNB9fvV67XC3+dJT5NZt/P0vQsQy/Y8ug9Vrl8+xtFX/D4N6J+D2Li3frDaKZMUDQ+eGYk/pw9iSGHZPnJBa2+Sb3H+5thbspW1+gs7BVbou1iv3W/q3p1uP3lYtCO21lH0teOHPb4O7VxxoeQ/1wdtBFvA339+VZ+8vuwPqGIjTucV58e+DpKoJ7dagp69qRtsk+fh8q5HzZvuPL+aPtfZPiNbajKtcabzG/ZvPvZwWHbECXqWOlir9fUAAY2rMLuFvub8PG0ipUiL/xAUewU4G45Aa9RTQzBgg6PxxjEGv6rFavcbDXlQd3gV6fJW+7aI2XVznmqnZh3aZaoKnHPyjelYnNZVl6Q1y4VxfD3dWGfrulf6Qt6BjBihzTnYoL/H55/Hrj75KRLfbNwURnPRrF32u9ChaWjCIRSByvU8nf4nidWVgjAlBjn7/3dbipCBV5H9HbRDNjgKB5ZKc45BL+nUkZZbp13e6/mPnTKUmo6gI8x0f0vlmSLXrfscSyQbSinYLnhXZtxGbxWjxH5JV3HP3d7ajI9geQGblSVA/AFpAuU889gFFTIJyJo8elFp2KckoLmphbBRE7GA72iCBTjI9coXYRhYUBguaRaKE32WmQuc4TbaVThhrG9HH6UKH3zEl5nz6Oc5n+tcmWvqe7BxMqvVSLNY6W+4zGR3wXbhkcrDmzrec91FCk98yBo8flX9qm6dkIqvdVg8ODVnrJnZ+Hy/QuonAwQFAEkOkPBLTU7dbwRGePuMg7LqyihZ4m/hsKaoavWCkeE3QnlNWCzg4YdPY2h9GzSc9DRVcbDrTL9FLeLAKd6EHtEb0EZ0rK10Ppx4HjmQHBzvSaTb9fYqE1nnC/Y6B8orMujM9fuJCVX4TGvjqVXgo9jkJkxgBB50dAysQagLUGZLOsgWJ9F8/92IKtRcXiQm/n9a08v6cyyfpZPSCcWLgT9aK1XKKOp8czXBuxo7cVQ/pYcimBuGDPeGGV+ft2NIqgVV80Q3qpIBOjvruYklCVKnosekzDvrBbv2cP1pRVq+PaqTTjazb+fnKwuw9pdplYcrqBZPnwGagxlaYaNE47jkJkljAp6HWiaZ08cRaex07g5tvCuTRFOXnr654UHHLcXRWd5LhQEkY32QE4tKcfGYX71iux7MoluoTiHXsQRFNYqSKZs4/u4CAM7kLVbMdRiDQGCCIn9aG5JHjyx7CjMJpzMvqOsg3AvjnfMEDxjikmCltcpZjiEFNMFIw9CCIiMmKAICIiIwYIIiIyYoAgIiIjBggiIjJigCAiIiMGCCIiMmKAICIiIwYIIiIy4iepKWzyk9TtO17CBUvZrohFb555G0Xb389PUpMPAwSFTQaIf3n0BG76wlW6hGLJTx59EZ/8Ar9qg/zYFKRZSUgQleadCVxicJHvLZETAwQRERkxQBARkREDBBERGTFAEBGREQMEEREZMUAQEZERAwQRERkxQBARkREDBNGC60dH57heJ4oeDBAUBcbRUZ6A7SEvsv1oSU1Ay6DejCjytWfDo7cwWDfN70EUWRggKH6Ji3VqajE6zvl6bQWw1OZ+ve0wuAtVXUVwr3ZZ2+l5SKvcNg/PSbTwGCAoCriwrmkSOwr1RTaKePtqgPIqrPO99CysbwCq2g3BhCjCMEDQArBa1M6Uz0RnsWit18Grt6WAsvG92J4qWuH24muNW+kjWRaQQlKtf/vx2WjUxWb+Y/iOLZ9vg7h4ox1VubLc7kkEPTaoh+FtFmXlezFhP784lrc5SfQSxM6mbF+ZZRyjw4B7ZYretiQmZ4rH9gT8LYgiEQMELYrEwipUoAa7ffn3cfR3t8PdsAUZ8qKcWwo0jGF4eFIsY6gfFhdbdaHNwtbhPvGzDvLivGEA9b3ysWLpbYVb7zLxNosAUtCKQ+rYYinLEp2Sjdixv1bsLdLHadOtfPl8+nFi2VcuA0hgYAPacH9fnu9YGWXi9RaI4vI+//Gl8R54ROBISw7q+bhSxOsdwCjTTBThGCBo/vh6AVaLunGDXLdb1DK1UgRPdw8m5GNVbr4WmwtdoidRL3oA1rrFhXWbxMXb2MoWvZM9NSKw7PSnbcQFN02vmqxYWQR0taF/DhfkjGwZRIJ0ZWKzHQRmVITg+GC93nYGCIp4DBA0f2SrXLW8rRZ1xX7dEtcXU9WL0BdqmZu3eg9aQQpW6NXpjWDU1CqfRmJhG4b3ZwalkkKzUl86uKk0VFBrP+zXShTdGCBoEekB2geLsbvJ2WOYamJ0QK8FS0GyCD5Ds21+p1erYHVIPv+UlJGfDA45lZnYpwKdfLzofRDFKQYIWgDWXUdb0/WmQ+LqYri72uEpz/P1HqyyUhzwDUL340ClPT4RzIWs/CJ45nirqBogtqmxAEOqx9dDEK/jeGbg+IeRC8mp4r/hESt9ZguVShofwZBeJYpkDBC0uFwbsbm8CPVFjhy+TE31tmLIHrOQdyWV94W8rTUwZaQfr/eZqDuPHCmjiv3VVuARz3uv6CHYYyXyA2xWGqwUOerxPVhTVo01cqB6httSM8r6HD9n91Cs3o6ZYWyCKMIkTAp6nWhaJ0+cheexE7j5tmRdQjORwakEff47mwSVxuouxqGmjUjUZZHg6UdG4b71Siy7cokuoXjHHgTRAsooaoW7qd6RDtPps/y8iAoORCYMEEQLSaXU2uE5oiPEYE/QLb1EkYsBgmiByfEJ/wf5UlDfq8dAiCIcAwTRgsvCOrvHkL7R8b1MRJGNAYKIiIwYIIiIyIgBgoiIjBggiIjIiAGCiIiMGCCIiMiIAYKIiIwYIIiIyIgBgmhB9KPDN70qUXRigKAoMI6OcuvruM360ZKagBbffBLnm3y92fDoLTmHdujXThS5GCAobK+99homJ9/WWzFAXLjDmYJ01tR820Vwr7a/XiMPaXOc4GgxyfdWvsdENgYICtvevXtx9uybemsxWTPUhZpAKNLI+bZRXuX4ziU91eoMkw6db/K9le8xkY0BgsKyb98+TL49iaVLl+qS6VgpIWfKR06S459pzRJQNr4X29VsbHppti+mVvpIlgWkkFTr33789DPKOY/hO7Z8vg3iQo52PTOdoycRcOzA1Jaana682PFag+e3HsfoMOBemaK3LWqq06aekHNhRwL53sr3WL7XRBIDBM3oyJEjOHjwIDaWbtQls6em8kQNdvsutuPo77bnnRYX8NxSoGEMw8OTYhlD/XC2DhJZ2DrcFzgvtLyAbxhAfa98rFh6Wx1fpz2Vt1kEkIJWHFLHFouc3U1Oc7q/Vuwt0sdps1r8OnBU7NePFc+dVpkUNIZQjHvtY+0HSpzBZbwHni4gLXg+UTX/9cDU+akjjHyP5Xst33MiBgia1quvvoqdO3di27ZtuOyyy3RpCL5eQBKqxEXSnuvZvtCvbyiCp7vHmthf5emtiXMmOuuDJtFxYd0mcfE2trhF72RPjQgsO/0pHHHxTdOrJitWFgFdbegP4+LsbS+FRwST9em6IPh1S6kp/tng0regviB4zmrDfNPqNbZHfICQ77F8r+V7Lt97im8MEDQteaG4+eab8bGPfUyXTEO2ylXLWvQACuBvhev5mFUvQl+oZZ7e6j1oBSlYoVenN4JRUwt9GomFbaKlnzk1lRSKMwDMyIXkVL0aI+R7Ld9z+d5TfGOAoJD279+PP/7xjygtLdUl50oP1j5YjN1N00+7OTE6oNeCpSBZBJ+h2TbF06tVsDoknz83eNxgei8cb9drJtaYQ6yR77l872UdoPjFAEFGzz77LDo7O1W6Yfasu462+tI0fomri+HuaoenPM/Xe7DKSnHANwitJ/Z39jB8XMjKL4JnjreNqsFimxoXCEz7ZGTL1Fa9Y0xhrwhmoje0aaO5V6Fvaa0vsnpJIVNJ4yMY0qvRQr73sg7IukDxiQGCppD3wtvjDomJ4SdbwqIm8XdcUCWZmuptxZA9ZiHvSirvC3lba2DKSD9e7zNRdx6px4lFDUDrOaHF897bUOQbK1ED0bKn4Ty2HjwPCHZN2f7j7UnBIXuAW7F6OGaGsYkIJt97ezyCn4+ITwmTgl6nGPdMfQL+/ROT+MpqXRBCRUUFVq9ejVtvvVWXWE6eOAvPYydw823JuiT+yGBTgj7fuIqJ6THylt6c7mIcagrRE4kATz8yCvetV2LZlUt0ieWxxx5TdzU1Nk5/MzHFHvYg4sSJ9mJ86n/rjWkcOHBA3ckSHBwofBlFrXA701R2yiw/L2KDw3RkXZB14oknntAlFC8YIOLBS3vxGHbix/+f3g7B6/Xihz/84RzHHchHpdHa4TmiI8RgT9BtvNFH1okf/ehHGBgIdfMAxSIGiHjw/o34StH0F6eXXnpJ5ZrLysqwfPlyXUrBMsr8t+1OJ6Osz/HhvRTU9+pxjygl64SsG83NzXjxxRd1KcU6BghSHn30UVx++eXIzs7WJXRusrDO7jGkb3QMYkcvWTdkHZFjEhQfGCAI3//+9/H666/jG9/4hi4hMpN1RNYVWWco9jFAxJF3u26A6916Q/vFL36Bxx9/XKUPiMKxdetWVWdk3aHYxgARR9Ju/Rk2rtIbwptvvqlyyjI4vP/979elRNO76qqrVJCQdUfWIYpdDBBxrL6+Htdffz0+8YlP6BKi8Pz5n/85rrvuOlWHKHYxQMSprq4u/OY3v8Gdd96pS4hm58tf/rKqQ7IuUWxigIhDIyMjaGlpwfbt23UJ0dzIOiTrkqxTFHsYIOKQzB3L1t+1116rS4jmRtYhWZdkkKDYw+9iijPf/e531W2Kf/M3f6NLwmd/F9OHspbpEoolv+w/afwupnD84z/+Iy655BLcfvvtuoRiAQNEHPn2t7+tvk5DfunahRdeqEvDJwPEkadP6i2KRatvXjanAHH69GmUl5cjMzNT9SgoNjBAxIlTp06pfHFJSQk+9alP6VKi+SPnspYTDO3YsQOXXnqpLqVoxgARJx5++GFcccUVuO2223QJ0fx75JFH8Nvf/hZf+cpXdAlFMw5Sx4Gnn34ao6OjDA40s5f24ktb9uKE3pwtWcdkXZN1jqIfA0SMe/nll9XA9B133KFLiELpx8PXlaJTb82VrGuyzsm6R9GNASLGfec738Ff/uVfYtUqx3dsEBk8U9+Djz/XikK9PVeyrsk6J+seRTcGiBj21FNP4ZVXXlED00QzuaGqGjfo9XMl65yse7IOUvRigIhRMg8sW3D8llY6X2Tdk6kmWRcpOjFAxCgZHOSA4TXXXKNLiBaXrHtf/OIXVZCg6MQAEYPa29vxjne8A5/5zGd0CVGYLvkw1hV+GEHThsyZXQdlnaTowwARY44dO6amhORXHtCcXHIdij9z3bwFCEne1SSntJV1k6ILA0SMkV+aJoODnNSFKBLIuiiDxD/90z/pEooWDBAx5Ac/+AEuuugirF27VpcQRQZZJ+X3f8k6StGDASJGyK83kKmlLVu26BKiyCLrpqyjsq5SdGCAiBHyxPv0pz+Nq6++WpcQRRZZN2UdlXWVogMDRAx49tlnMTQ0hFtvvVWXEEUmWUdlXZV1liIfA0QMkC0yeeIlJCToEqLIJOuorKvsRUQHBogo97WvfQ3Lly/Hxz/+cV1CFNlkXZV1VtZdimwMEFHsxIkT+MUvfoGbb75ZlxBFh/z8fFV3ZR2myMUJg6KYnDpUtsRKS0t1CVH0aG1tVV8JXlFRoUso0rAHEaUGBwdVC4zBgaKVrLuyDsu6TJGJASJKybl/P//5z+stougk67CsyxSZGCCiUE9Pj/o/Ly9P/U8Urew6bNdpiiwcg1gEf/wj8NZbemMefO9731Mn1gc/uFKXEEWvX/3quAoQX/rSl3TJ/Fi6VK/QnDFALAIZIF57TW/Moyuu0CtEUUyeG/IcmU9LlgCXXKI3aM6YYiIiIiMGCCIiMmKAWDT9aElNQAvv6COaYqKzGKnlezGhtykyMEAQEZERAwQRERkxQCy2vjqkpibopQ5eXYxBZ7lYArrb4+goD9z3it5DFDtGcMBRz7d3juvyoPovloBUbdC5wzTu/GGAWGSNyMPw8KRYxlBfUIOS5n5rR3q1LpdLHyq6SpGj9010bkNVVy322fubNuJytYcohnQNIPluXcf318JTuQ0dKka4sK5Jl4vlUEMRGjcU6339aNlQA3fDmG//1nRZTvOBAWKRVWRn6TUXsvKLgOERw8BcFtaU61UhMTlT/FuDw2wZUSwrKEaWS6+n56EC7Ri1OxEOiauL4dbrQAqSCwBPdw8HuBcAA0TECOxGlzSJIjt4yN5FbyuGNrALTXHKmUbKLYXHFzys3sW+VNHjlvt4J9S8YoCICDI4JKEqtU93k2X6Se+yuTZih9wnut6ye/30y7qcKNbJ4LBhAPW9Os0kzoFgGWX6vIE/NUvnjgEigrhXplgrg7swmjr1JFBcKY7uNVG8yESySj+JxlQfUBHcgFJcSE7VqzQvGCAigugmb5KDcklWF7ovD1vL8tRA9YFB/SEiR/caDTtx83L9o0SxLn2LdUOHOge2AUXVWJ9fhMY9Mp1kfQDVPj9Kmmqxr8we56NzxS/rWwT8sj6i0PhlfZGLPQgiIjJigCAiIiMGiEUiu7zhLu9851s4cuQQLrhg0rjfXohiwTvEVchUv+UizwF5LshzwrQ/1ELzg2MQEejw4cM4ePAgHnjgAV1CFL++/vWvY+3atVizZo0uocXCHkQEGhoawkc+8hG9RRTf5LkgzwlafAwQEeiXv/wlVq1apbeI4ps8F+Q5QYuPASLCyIzff//3f+NP/uRPdAlRfJPngjwnmA1ffAwQEeb48eN43/vehyUcaSNS5Lkgzwl5btDiYoCIMC+99BKuuuoqvUVEkjwn5LlBi4sBIsKcOHFCtZaIyE+eE/LcoMXFABFh5EnAHgRRIHlOMEAsPgaICHPy5MmwexAn2ovxpXbDjCpEMUaeE/LcCF8/Hk6swzN6i+aGASLCvPrqq+EFiCN1SLuzXW8QxTZ5TshzIzzjaNuSjX/QWzR3DBAR5rXXXoPLZc+7GIpoHf1bHob+uUhvE8U2eU7IcyMcJ9p3AX/fh3v0Ns0dA0SEkSfBu971Lr0VSha+UsXvvKf4Ic+JcAPElUXVKH6/3qBzwgARQcbHx3Hq1Cm9RURO8tyQ5wgtHgaICPL73/8el3CWEyIjeW7Ic4QWDwNEBHnjjTfwnve8R2/NbMnyj2DVcn7imuKDPDfkORKe92LFx6/GpXqL5oYBIoKcPn0a7373u/XWzC77+H346scv11tEsU2eG/IcCU8a1n+/FKl6i+aGASKCnDlzBhdddJHeIiIneW7Ic4QWDwNEBDl79iyWLl2qt4jISZ4b8hyhxcMAEUHkVxrzGyuJzOS5Ic8RWjwMEBHkox/9KJKTk/UWETnJc0OeI7R4GCCIiMiIAYKIiIwYIIiIyChhcgEmev3t2FkMP/u63qJwnTjxG/z617/GmjX8nqW5yC68Qq9Ftr7O3+o1mo3Dh/txzTXX4MorOaHWbKV+9BJckTT7D9UuWIDoeeIEVqbxayNocfzh1Fl8oni53ops/9b2Mi66lJ+Ap8VxfOh15H3uysgLEHm38o4cWnj/81+v4/WJ01EVIC5JvBBXf5gNKFp4PY+NzjlAcAyCiIiMGCCIiMiIAYKIiIwYIIiIyIgBgoiIjBggiIjIiAGCiIiMGCCIiMiIAYKIiIwYICLaODrKE7C9c1xvE5HPYB1SU+vg1Zs0/xggIoIVCFKb+/V2CON7sT01AS2DepsoHoRZ773N4hwq34sJvU3njgEiormwrmkSOwpdepuIfNKrMTxcjQy9SfOPAWLW+tFit/RFF9fZqpnoLBZdXtGK0Ytzn2zdtAyKnzXs9zYnoapLrDRlW/vU8f2PtR4ntnNL4RFrjRvscnMKSrWk7GOEeK1EC2Gisw4dqjqKutkc2JpX9VLX6dTUYv04QfYQRMvf6zx/fD0BU713nGv6cXK7pEmsdJUixy43paBUb0Q/t+Oc8DYzVWXCADEbqnLVI7koy6qge1KwPt3aJbdzuotxaHhStGrE0tuKIVGhnRflxg09WKP3H2ooEttWpcwoG0N9gVgp77N+tkzOB5GFrcN9qJA/qIhtcUy3WKvYbx1ja7roYWyqhadyl6Ny9+OwOFEqsq1jrF9Zb50s6VuQvIfjGbRwZADIOZ6HdS7ZuEnCaPZGJDr2lUDXb7nsz0RVriNIiAv7buzU+0W9F9v3q7pqqvdAYmGbOodscntfuVgpaLXOwSbx3KLO1xfUYLejzk8caYOnoBhZslPuOCcyilKw2xm0SGGACNtv0fFgG9y9bViHvbhfBgNZCdW+fhyobEfFJv8JAddGbBYVtrHPMa5QnufrDieuLhaVfgCj51oh0/NEEKnBYTsQDfagUZwkduBSJ1J+mzjZgHVNY3B3b0PPy9Y+onkjWuMqAIjGjbc5GxAXc3khV0TDandTEepFw8pHXbzb4TlinwBFcK+2U6lZWCPOHc/xEb09Vy5k5RfB092jeyPj6O92nqcyhWudEx3YiB29xfA8uBd/UPtIYoAI2xVYd7eoQLLVIyrTveKim+PrBlvsLrC9qC7vghO9BNkb0YHI21cDd36eL1DZPZt7C4GO8iR48nciLzqmTaBokl6NfchWqc2Msj4gqPcMtIseg/P80GnVBZZYWCV6I23ol3FovAeerlqssQOXujnEOidko297rmgA3r0RF+m9xAAxO6JXsGO4CqPt/aplPrxpBAccJ4HdBQ5YVLpoYaneSFMPvCq95GyJiZ7N8Sqruz24C6ObOOBNCyejbBKHVvagY1ymR8eQ3OdsQIkeRO/U82Ph66PsjVg9FZVecvTi4TgnvO0j2DzchnU8PQIwQMyaqPz2RV+0mqxutG7F6zEFi2OAeEYuJKeK/4ZHAnokU7hSkCb+GwrOS7ny4C6oweFmmV7S+VXF9FqJFk5iYbW+yLqwrkynclS6VfQgHnQEjPG9aAl3PCxUvQ+yYmUR0DWCF/S2LSO7Fp7uXTgg00tqbE5znBMZZbwbyoQBYp5Yg2YDKPF1obOBlSnTX/AdZLdcDsypOzBCfvhHXPD3y0HpJOs5fAHIyrU2NtUEjoMQRQjZu9iXatdvseS2AWHPSByq3gdKLNypBqWtc9Ax4CzH6bpq0Aj/2ByFh3NSxwp5h1Wu7CbHX0uIc1LTTORdVLtXjsVlipVzUhO87aWB+VUisui7qPxjcxQuBohopz6boe8xX4QBcaJooj6cJ+9OkrenMz7MGgNEtFN3Vi3O3VJE0UaOfQzz7qQ5Y4AgIiIjBggiIjJigCAiIiMGCCIiMmKAICIiIwYIIiIyYoAgIiIjBggiIjJigCAiIiMGCCIiMmKAICIiIwaIc6C+CMz+fnvnEvZEQdMYb0e1Owm3PX5UFxBFPjnFrfNcyCm8BQ+0eXFK76fowgBBRAtm4lcH0XpPJqraRnTJ9M48fxC777sFuwPmsz6N0Z4GPHBHQ4iJtGihMECcM8Ncu/PxzaquItR5xvDI51fpAqLoYc/P/lznt5Artnt/E970oq//5y489PhBnNHbllfh/WEVWn96Wm/TYmGAOGftqMr1d6lbHC0fmYLKua8Ou+/Jxk1yf04aqr7b7+9un+zH7so0axpGse/O8ltQUr4TQyPWHA/qmHa6Ss37cAsav1uFOwutqRdvuqMKHb92nDRvHEXHN2/B2hz5s0lYW1kHj3M/0SI7c8aqf7nvs79v+zQOf1PXbbHIFNRDnUetgDBYh5zKdvWoxg3Wfnk+eZuTUNUlS+3pRP1T8p56tgHVG66xjue+BQ886j+/7HTXA9/diSp1zqSh8cBD+IwoK/meoy+i51SpbP+5LiAbA8QCm3i8Bg+19WNUbcgLeLbubnux+6+y1cmh5q0W+3q7DsKbvArXXiQLTA6i5ZsN6P2V1Rob/WkDqr5Qi8Pq7BLH2yQD0EEcUwccx7HOGmz/whZ4wpwbnmi+2Bf4G4qrMPrpVnz1L1P0nguR/CdFet1KQe2uLEXrHIbaTvXchU9trMKTgzp99fxBtNZm485vewN6IK3fvAsd8pxZtQXu9bdhc4E4W76zC70n5d7T8LbXw4MMfPKG69XjyY8B4pwFppi2TpkUPQ9f3X9S7Xvm/1YjTZT0/udRnDo1hlHZ2yj8Ln4yJH7W+xNsvUZsd3txTE4C1NsKt/zxYJ9rxSH5+KFfo05UdEwchFgVJ4vomovjue8bwjPqtfwBh5q2IXFir+iah5f/JVoIx35Yii9uEj1jvZ386Tbf+fKTf5DBwgvvMXEBT6/GoQYreNgpKnk+ZZSNoV7WddRin/o5Oe+6F0/+n52YWFWJfz5kPXb4cB++eqM42sOt8DoiREZ5n3VO/KBSnH8uuDdWi/NiJxof78eZkwfxZJPoTawqxYdW6B8gHwaIBXcZlrsuU2uXfuwW66J/8lWcvTQP68qzgM7bcVOaaG1l3IQWcaFPvHEVktWjQ0hKQeI7xf/vTMEn8q2T64w4Gc6+MaZ2e+5Lww2yu516EXLKxQkkyk698araR7RY7Av88NBJPFKWgYn/qEXvf8k9p3Gsu86XFrrpHiulNHuncUb2Oo424E6VUhXLGtEj/6ne5wgQudlZuFSvS0s/Vowtq4ChplpUP1iLJ0VZ7heKsNLaTQ4MEOfNhUjLvkW0hESL6oOrkChaNtcWfgvf+cragMoctnddqP5z3zeAZ2QPQ7W0rOX7X5LPQnQe/FH/D9FDEOunflqFL95Vg1Of+wmek/Vzf63eH+jlV0yNmjHR89ar4vwRJ41o+YseRO8fAur78PC3kDvtSZSBv7hdNq4OouOHcixiCz6bZ6fAyIkB4pwFDlKrJazPQYyjd2+NaP9Xo+6HQzg0PIaDDduQdrHePUuJN27BZnHCeO7LxA2yR6JeSyZ282MUdB7YYxCp1y3Dbc3iIpxei1zRaj97akz1apcvT8JS8f+xo33q8QNHh9S4wZKLk9R269ZljnPpQly6TJbuxJ03WMdtGcwQPfC1Vg8i9yJd38Vy38GwPnORmL8NW2WAkYrXYo06PgVjgDhvXMjM34JrE+twm++Cfg3u/OZBa0B7ti7Ow1c7+/DV4ixHisqLjv9w3K1BtNgSVyH39lYc/E410kRESMyrwddFHe29Q1zU3bfgyUu24Kt5LuD5cbwsHn5pnugR3L5W12HRq75Y9owvQ+4dT2HzjbqVL4659F2i5/25NtGoqkTuB+07pITHD8IbToRYmo01fylXXNj66Tn22uNAwqSg1+fNb8fOoueJE8i7ddpsetw7M9iAxmNrsbV4laigp+H9bh5KvjmCirYxbP2wfhDN6H/+63W8PnEanyherksi27+1vYxLEi/E1R++RJfQojszgif/7hpUH6nGIz21WCO7MzGq57FR5H3uSlyRtESXhI89iPPmKJ58uAq77/EPKpd8U3anM7Gc1w2iBaO+Iuc6ERy6gIw7imM6OJwrBojzZhVKH/6JIyWUgoziWuzobMVnP6AKiGiBJH5wLTY3DOGfeQPHtJhioqjHFBNRaEwxERHRvGOAICIiIwYIIiIyYoAgIiIjBggiIjJasLuYOr7zEq65/r26hGjhvPqbM7jokgTkf/59uiSydT/+G/zh9Ulc9j7egE8L79c/fw3r7nj/nO5iWrAA8dTuMaziF5zQIph48TTedcFkVAWIP76ZgMSrrC9YJFpIRw+fxC2bkyIrQPBzELRY+DkIotD4OQgiIpp3DBBERGTEAEFEREYMEEREZMQAQURERgwQRERkxABBRERGDBBERGTEAEFEREYMEEREZMQAQURERgwQRERkxABBRERGER4g+tGSmoBU31IHr94zK4N1c/9Zogg10VnsODcSsL1zXO+ZjXF0lM/1ZynWRXCAkBU3G43lfRgenhRLHyoKUrBC7/U2i5OifC8m9Pb5YZ1cqc39eptokYhGT04lUN8rz41JHGooQlqyy9o3vhfbRcBoGbQ2z5tIeR00Z5EbIMZ74OkCKrKzdEEWtjZtRKLempX0anESVSNDbxJFO29fDVBQjCwdExIL27A13VqfHRfWNU1iR6E+EJFD5AYIVwrSxH+NfVNb57JrXdIkVrpKkSO717onYXW56+DVLRdZPmx3w329DZm2Eo9RaSdRrhZn+kn3Cnz7gvf7eZuTUCWCGJqyrcfJnoQpnaVeTzE6RC/e6vkUW6/PeOygtNp57yVRJFqxskjU/zb0T8kMifqTWwqPWGvcYNUhqwVv1SuZSlJ1UJX765rdypfn0PbO/oBzIDD9FFQ/5WKso6bXYU5nqdejeuH6NYrzw3fs4N65fW6H2k/zKoJTTKLHsL/Wd/F1VirZWtpXLlYKWnFIpp8CehYD2N0O3KvLU8VjZfc7UA1K+vJ06moM9QViW1c0ddGHPq5Ma4kyd8MWY+8jo0z+rFix02BloreTvkUdb7fj9U4caYPH0doDiq3XJ5f9QIkOHtYJkg3s1/vEsi9VBEFxAr6qfo7Ikli4U9SzdlTlyguls5EhzpveVrjFWoWuRwE9i+5tOJxtl4vH6jru5KmsB+7WdVCcg57Kbbp+BqV97efZZOrZm16H6K1sksfb5Xi9/TgsGnv+TIGQv9M6vlj2QZz/dgCSwSG3DW6dVlPn7rDYzyCxYCJ7kFqlhqz8qqcyKehECM1dNHMqyl8hXcjKFwFkeERUQquyuvPz9M9nYY0IRJ7jI2orPNbxPN09ulU1jv7u9sCTKDXFv64CijjR2/tF660ejSLorXec0BlF4iQTLcVfvKILiBQrNWQ1YkQDJ6gRFYontWrmVJSzMZOeJ47fjlF56OC0rysPbtFAGlI7w6SOV4PD9rjEYM+UOu8bSxGs+l+KA+Lx3nbRIymvwjrfbivgoKmHDagFcp4ChKObGkYKRfYY7BPB2TI3y4Sjfs1SCpJFhfdf3HXAWJmitsKVWFiFCrv7r06qWqwJeVK6kJyqVyU7bWYvuptOccSR/pz5oi97AXYjytkyN5ttXQ4QnPbVAcN5QZ9ZFtaL12ofQ46l+BtkBvo5fex0rr1sqNE7aCGcpwBhVWrVTQx74Nm6eC8s2SoTgch3kba607MfwJM9j3Z4joxb6aXyvGkGyMcxOqxXJTttFrC0IedyvZ9in+45yyXcupeYnKnXFpJOG9kXadF4QcPYrAfHE1cXi2P0iGAmG2BFcK+e5nccH8GQXlV8dzU6l2pcpnfT/IrgFJPMdzpSSoO7UNXlr0zWIN0IXlBb80eleZyVUI4rhKRb/yo9FSgju1b0RHbhgEwvOfOrwfTvVV+UpXsepbjfOX7RWafzv0QOopfh712Ic2WPaEnbDRHd6p5V6idMMs0jg4J9fkwbwEK9DpWaqsHhZpleco7NTaXSSjoFpdJNIjg5b5v1NoeXdqa5ieAAMYLRLiu3anUlB1Df2+bLP1qDdPZ+e5B3ngR1Y6fr5meUOXscjsoqc63i9TciML+qOI+/J0X0GOzfyxo0TFPjLdb+nG4gWf0Qkd/E6IAel5P1JAlVqaJR42vMiHqkBpf1/nkexPU/r7WE/pxDqNdhjdM1NtUYB7jtu57ksnulCEZ2lsG1ETtED2bIsb8EKVgx/3GQtIRJQa/Pm9+OnUXPEyeQd2sMXNpkPjgoOIVL3r4nK7izlSXLSuA8melc/c9/vY7XJ07jE8XLdUlk+7e2l3FJ4oW4+sOX6JLoJW+LzanMxL7Zfs5I3ZE0gs0BP+e/i29un+kgk57HRpH3uStxRdISXRK+yL6L6Tyw7gP3N0lkS21OA9/iBNg9U36VKMrIBo6zx/DC8XbA8Q0H4bLuSJpubI4iAQNEMDnY50zxzKF1pD74o+7Xnn2vgyhyjWPFytqAFFDJcCsOzeYbDvQH3diLjg5MMVHUY4qJKDSmmIiIaN4xQBARkREDBBERGTFAEBGREQMEEREZMUAQEZERAwQRERkxQBARkREDBBERGTFAEBGRUYQHCMfMc2qZ43e/qxm6ovl7482Tvc+edZxomsNXfnlidL93C8f62/jPj7nVj/mqW+fRfJ3f6jjzPHXAgrKujwv53kVwgJAV1zFBupxy1PGtkeoL8cKYrpTOgf5itdDf90/njbiY5VQC9XoCfznlqG/qT75viyPqAsrsRW6ACJ4gXU4+MptvjXRSUzjO8vvqI4o1Qf3spz6lWCXncoZjNjY5b/vc5lCIgboV9ed35IrcABE8QbqD7FqXNIkVeyY33ZPwpSN0C0qWD9vdcF9vQ3bLxGNU9Le65oHdU52G8e0L3u8UlAJzpG6Cu/+B0ySKMvl67Nfw9S+L/4NaIr7Wif85AlqEAa8/cN90zx1our+F2JdbCo9Ys7/eecrv4PsZx2v3tV7tv2Mx9rbq90U/RPK9V4a/d+jXSzZryt029E9pvYZ636x6JNMR9nvXMji1bsn3ZXtnf8B7EpjC8P+MbwnVkw9ZR4OO4fz5Wdaff7XresBrCKpTAfumee4g0/4t5OvcIII02lGVK/dNPQd8z+G4Lkw595u/43tf/Pzv1dS/9+L2WCI4xWRNV2hPz+n8A8rW0r5ysWJP8B/QsxjA7nbgXl2eKh4ru9+BalDSl6dTV2PW1KX6TfQ2J6EK+rgyrSXK3A1bjK0Tb3M2Gu3XIBf9/fayYuV0F/vL9TSJgRe+Ntxvv4YH7hevQVS0dkdFki3E8iqsc1nTkMrXYVMnh5rlznH8PVZFD++5nUL9LcTzygnqxVrFfutYdgtVVnL1ff72c+zPFCdJYMUd2rMLuFvub8PG0irx+muw2/cejqO/u13/Xa0WrH0s+V41bljckyAaWVPu2hcn58Uz9PumdG/D4Wy7fGrdkjyV9fq9E4uaMnSbfj/khdeR9rWfxzBtqLqwiQuo2zF/tfU65AXPmjXOLt+XKhp6QRfqcOvPn085v+Xx9RSsjuMf8AXJmZ/bKeTfQk5/Kq9PKNLnoZ77RQYHNReM/RzinBoW17CAcT/HuV92B9aL1++p3OV/Dwd70IhabFa9Ovke2ccSr7dcvueBwXIhRfYgteo6WhcNa17b8P4w7qKZU1H+1JU1Py6GR0Ql6cdh0TNx5+fpn8/CGhGIPMdH1FYwcyuuHwcq2wNPGlGZNovjBPSGujKx2TdhirhIbpLBsMf6/UQlk7PR1ReZJlSxju9u2OmfjEhWVhUkw3zuIOa/RQim15a+RV2sPEccf4j8LY7JkrKsk6C7xzru4C5UddknQKDE1cXqokMzsQOrvMBbc7MHtkLNPKlVM6eiHKkrNbe6aCWPykMHp31deXAXiIu52hksBclin+891yY661WjyjlPe0aRCDTB59Ec6486vri47nNMRpRRZgWnsJ/bKdTfIgRrpjzZsNMFwee2FHDuy2BvBcDDKoiJILxHBlZzozQjWwalxXOeAoSj2zRN9LbJHoN9IvhbEaHMYXpQn+BKrQPGyhS1FUy9LtV6ntr1c866JReVEnMKnqZRXWStSjJxpC2okk3lG5A0mPG5z5ndcrUX0WITFw6n4NenTgJ9IsreUcAJ4ExFqPTI9CdhzHP8PWa+6FstTKsR5WiFhhCqLoclOO2rA4a5LloBTLXQ5e/iPM/t1LC96JSY06zqT7DppkAN47nPmc56+BaVinKY8vqsAKj+rupvGhj8rHSa81gDi3Z+nKcA4eg2hT3wbF28F5as1CIQ+SqR1Z2edgDP18tBQNfP7t4HLNNOsWi1NBr3FON+eXeKsffgZ261WWb/3LNld6sDl+kHOuVJIP5GDxaLHojjBJAXQ2e6THXb45yuUzP/Tf0S5VS5C06nr+wLoLi4omFs2h6JbL2rNAvEOWWnWZxpWd8y0/S8IeqPSdcIXtCrU8zpuWfJd+elc5l+EF0FwKZ6bH9Q/k39wU+ljNW0x9ZxpqbLF1YEp5hkvtORUlLdyiK4V1vvpJXemaYizJHqhjrf4DAvrP4TVLcGNjjTYaLHFJCDDEF2Ybva4XF2a6fQ3W1fXliyj38Oz22iW4wBwUilrEQP4kFHi3B8L1rCSG+o9JH8/aZMVm/3+sR73icCnKMhYP1dF6/FFDVEYPX3Lqy0BOy/q+l9mycyhSKDgn1+hBfAXEhOtdasnkAp7nfUl4nOurDGnELXHz87XWOPKUr28c/luY3E39kd1NtVKSsRQJ1jft7mcFLjMp0tfjfHNc7H1+Pox4HjmeL3s+mMR4gU+HyI4AAxgtEuK7dqda1kK9Mf6a1BOnv/PA9qBnURQ3XzA+7kEV2/iv1WK0Gmng41DPhfuxwYE137mVJp9gXePOjnZx1f9limHn/uz20iWoxqYE6O/4hj6ZNOtgp9qQO55LYB4Uw/roKLafzCfh+3ic5JNdbniyCnB91la9oamCvG0dfVT5AwMTrgf1/sQVlfY8b8vs0X//Nai/kGCEcaWSwlotVvjQvI7EEf0hzHyOkOr/oY688U1vErHOew//jn8Nwm4vXcqxpk1rHUdUKU7dA3htjPUSIu5CvCuD6p4BKUWraDmnWu9WBNWbUKJNYNLS6su1v36Ob5PbYlTAp6fd78duwsep44gbxb5/ynjxy+FMg8d0Np3vzPf72O1ydO4xPFy3VJZPu3tpdxSeKFuPrDl+iS6OVPgfBzCJGq57FR5H3uSlyRtESXhC+y72I6D2SFd/YYZEvt3Aa+iWKH7DU7ewwvHG+fflCYohoDRDCZ83Z2Qdk6ItLGsWJlbcBdciXDrTg01284oIjHFBNFPaaYiEJjiomIiOYdAwQRERkxQBARkREDBBERGTFAEBGREQMEEREZMUAQEZERAwQRERkxQBARkdGCfZK64zsv4dr09+oSooVz8jdncNF7EpD/+ffpksjW/fhv8IffTWLZ+5bqEqKFc2zwNay74/1z+iT1ggWIp3aN4UMfW6ZLiBbOxEunccGSyagKEG+eTUDi+y/UJUQL55f/cRK3bEmKrADB72KixcLvYiIKjd/FRERE844BgoiIjBggiIjIiAGCiIiMGCCIiMiIAYKIiIwYIIiIyGhBPyhHs/PWW2/h7cm3ccG7LtAlFK6Vqy6Oqs9BHD/6ht6icL35xzfxjoR34J3vfKcuoXBF1AflTv/+Lb1Gs/Hzn/8c//Iv/4K/+7u/0yU0Gxe+OzouHDw/5uYb3/gGPvnJT+L666/XJTQbczk/FiRA0Nw8++yz6OjowH333adLiMgmz4t169bhox/9qC6hhcYxCCIiMmKAICIiIwaICCIHqZnxIzKT54Y8R2jxMEBEEHl3RkJCgt4iIid5bvAOpsXFAEFEREYMEEREZMQAQURERgwQEUTmV//whz/oLSJykucGxyAWFwNEBFm+fDlee+01vUVETvLckOcILR4GiAiybNkynDx5Um8RkZM8N+Q5QouHASKCXHzxxXj77bdx+vRpXUJEkjwn5LkhzxFaPAwQEeayyy5jL4IoiDwn5LlBi4sBIsLILvSrr76qt4hIkucE00uLjwEiwnAcgmgqjj+cHwwQEeall17Cv//7v+stIpLkOSHPDVpcDBAR5sYbb4TL5dJbRCTJc0KeG7S4GCAijDwRxsY4XSuRkzwn2HBafAwQEWbFihU4fvy43iIiSZ4T8tygxcUAEWGuvvpqnDhxAm+8wUntiSR5LshzQp4btLgYICLQhz70IRw9elRvEcU3eS7Ic4IWHwNEBPrwhz+M5557Tm8RxTd5LshzghZfwiTnuFxwf/wjcOqU3giD/EqBN998E0uXLtUlZpdfrleIopj8fsrpZhI9c+YMLrjgArzjHeG3Z8XDcckleoPmjD2IRSLDcLhLQsI7sGTJUuM+50IUK0z1217kuSDPCdO+UAvNDwYIIiIyYoBYNP1oSU1Ay6DeJCKfic5ipJbvxYTepsjAAEFEREYMEEREZMQAsdj66pCamqCXOnh1MQad5WIJ6G6Po6M8cN8reg9R7BjBAUc93945rsuD6r9YAlK1QecO07jzhwFikTUiD8PDk2IZQ31BDUqa+60d6dW6XC59qOgqRY7eN9G5DVVdtdhn72/aCN7hSjGnawDJd+s6vr8Wnspt6FAxwoV1TbpcLIcaitC4oVjv60fLhhq4G8Z8+7emy3KaDwwQi6wiO0uvuZCVXwQMjxgG5rKwplyvConJmeLfGhxmy4hiWUExsuzv40vPQwXaMWp3IhwSVxfDrdeBFCQXAJ7uHg5wLwAGiIgR2I0uaRJFdvCQvYveVgxtYBea4pQzjZRbCo8veFi9i32posct9/FOqHnFABERZHBIQlVqn+4my/ST3mVzbcQOuU90vWX3+umXdTlRrJPBYcMA6nt1mkmcA8EyyvR5A39qls4dA0QEca9MsVYGd2E0depJoLhSHN1roniRiWSVfhKNqT6gIrgBpbiQnKpXaV4wQEQE0U3eJAflkqwudF8etpblqYHqA4P6Q0SO7jUaduLm5fpHiWJd+hbrhg51DmwDiqqxPr8IjXtkOsn6AKp9fpQ01WJfmT3OR+eKX9a3COSX9ckvJJtvV1yhV4iimDw35Dkyn5Ys4Zf1zQf2IIiIyIgBIkqx40ex4ne/+51eo0jDABGFZHB4++23RNd8AfJWRItI1uGJiQk2eCIUxyCi1GOPPYYXXngBd999ty4hij4PPvggVqxYgVtvvVWXUCRhDyJKyRPq9OnTeOKJJ3QJUXSRdVfWYQaHyMUAEcXuuusuPPXUUzh8+LAuIYoOss7KuivrMEUuBogotnz5cpSXl6OxsRHPP/+8LiWKbLKuyjor666swxS5GCCiXGZmJr7whS+goaEBb7zxhi4likyyjsq6KuusrLsU2RggYsAtt9yCj370o/jGN76hS4gik6yjsq7KOkuRjwEiRtx22224/PLLVeuMKBLJuinrqKyrFB0YIGLIX//1X+PEiRNoaWnRJUSRQdZJWTdlHaXowQARYx566CGMj49jz549uoTo/JJ1UdZJWTcpujBAxKB77rkHv/zlL/H444/rEqLzQ9ZBWRdlnaTowwARg5YuXapOSHmv+fe//31dSrS4ZN2TdVDWRVknKfowQMSo9773verE/PGPf6wWosVk1ztZB2VdpOjEABHD3ve+96G6ulp18//1X/9VlxItLFnXZJ2TdU/WQYpeDBAx7gMf+IA6UeVdJP39nKuXFpasY7KuyTon6x5FN36ba5z4+c9/jq997WsoLS3Fhg0bdCnR/Nm/fz9aW1vx93//97j++ut1KUUz9iDihDxhi4uL1Qn8s5/9TJcSzQ9Zp2TdknWMwSF2sAcRZwYGBlBbW4uqqipkZ2frUqK56+vrQ319PWpqavj9SjGGASIOPffccyoNsH37dtx44426lGj2fvrTn2LHjh0qfXndddfpUooVDBBxamhoSAWJNWvWqK9dJpqtpqYm9TkHGRzS0tJ0KcUSjkHEKXlCb968GUeOHIHH49GlROGRdUbWHVmHGBxiF3sQce7YsWNqTGL9+vVYu3atLiUK7eDBgzhw4IAac7j22mt1KcUiBghSM3zJILFu3Tr8xV/8hS4lmupHP/oROjo6VHDg5xxiHwMEKS+++KIKEvn5+SgqKtKlRH7t7e3o7u5WweGqq67SpRTLGCDiwGsTb+q16U1MTKC5uRmrV69muokCyLSSHHMoKytDYmKiLp3eexMv0GsUrRgg4sDRn53Cz//9Nb01vbffnsSbb76JpUuX6BIi4MyZs7jgggvwjnck6JLpXf/x92LVn16qtyhaMUDEARkgXhw5i4ybw2v5EZ0L79MTuCplCQNEDOBtrkREZMQAQURERgwQRERkxABBRERGDBBERGTEAEFEREYMEEREZMQAQURERgwQRERkxABBRERGDBBEYetHS2oCWgb1JlGMY4AgmmIcHeUJSG3u19shDNYhNbUYHeN6myjGMEAQhS0LW4cnsTVdbxLFOAYIim6iFW+nfLzNdfBaq4q3WfQCUu3F2dKXqSLxWNUDsPf7f9bbnISqLrHSlG3tkz2J8b3Y7jyO3N5QI1baUZVrl5tSUFZvZHun/CGx3+6VOF43UaRigKCoNdFZjNQ9KVifbl2Ed6/cggy9TwaHEvRhWLT41bI/U1zInUGiBiV9eXr/GOoLxLa+eGeUyW2xUq5/viwLcG3Ejt5WuNUjBLm9v1asFKG+Vx6jDetcWVjfUITGPXsxYT1KxIceeLqK4F7tEhti/8p6pJaL/elbkLzHDhxEkYkBgqLT+OO4v7sYh5o2Ap3b4Mkfw45CeRGW+/Zid5O4cBeJC7tNXJDrC9rhOeK/IFdk2/tdyMovAoZH/Bf2OUpcXQx3Vxv69dNMHGmDp7xKBA9rO7GwDYfy23B/J7CuaQzu7m0YCG8uJ6JFxwBB0cn1edwrLrQ5ojWOwp3iQpsU1Bq3Uz/2otNGC030LDaX24FoHP3d7Y5AZPV6ckRgu7cQoteTJALbTmS+V+8kijAMEBS1ZGt8eNMIDgy6RGt8EpuP73KMQdipn8DF18tYQBnZtfB092BCpZdqscY3qN2PA8erMCx6PYmDuzC6aXFeD9FcMUBQdEuv9t1VlFFWbY1B6FZ81YPOsYC9aAk73+9Ccqr4b6aUkysFbtFTGQ0+bHoeKrracKBdppfyfOMi6i4oOZ4hOV43UaRigKCYlFE2iX2ppcixU0y5bUCy3hmGjLI+cZG3fz7w7igfEYjulYPSG6zn8Ke4srBGBKjGJgSOgxBFmYRJQa9TjDr6s1N4ceQsMm5O1CW04OQttHtS1CB6vP3VvU9P4KqUJVj1p5fqEopW7EEQzbtxdOypgTs/L+6CA8UWBgii+aQ+fCfvTnLcdksUpRggiOZTevWi3S1FtNAYIIiIyIgBgoiIjBggiIjIiAGCiIiMGCCIiMiIAYKIiIwYIIiIyIgBgoiIjBggiIjIiAGCiIiMGCBoQY0eqkNVYZL1ldvubGx/+OA5T+s5vXF47rkGOV/ciWO65Jy9NY7Dj96FO/XvkVN4Cx7qPIpTerfZArwOp/F2VLuTcNvjR3UB0fxjgKAFc2awDts316DjV3qehOf7MXDhsij7htMRdNydgdtqd6JX/x4TvzqI3ZW7MHRGbYbpNEZ7GvDAHQ3muSWIIhDng4gD52s+iKFvJ+EzDydh6//tQcXHLtOl0WW07RbcdM9BJObV41v/sA0Zyy7Emef3ovrRy/D1mrUIf8aDcTUHdVVXLfYN65nvYhTng4gd7EHQgkn+YLH4dwyj4yetgmBvHEXHN2/B2hw5I1sS1lbWwfPr03pnP1pkWuquGuwWj7lJpna27kDbfUlIzanBYV/r/TS8zZni52+H56S8CFuzuwXMAieex9N8O0rc+nm2VsHzot4nfv5YZ5UjfVSKlu6jsA7vhefRg0BiJRoaKlVwkJZ+YCPqvpJnBYfxvdgun6+2Aa2VaWoGurUPP4nvB70Ob7MMDvIHalAS9PpOPduA6g3XWI9334IHHu33pa8mOotV+QPf3alTdWlo/PEj1nPKpblfP3IET27WZWK5acPt2P3sq3of0dwwQNCCuTSvEjuKL0LH312Dm+6owpODzsmbvdi9KQ1V3z2IY2pQYlxcqGuw/Qtb4HE+rLsOD4nHjIrVTxR9AcUbqpA2UYfdnSPW/pMH8WSTF2l/uw3uZVZRIOt5tjftgvd5uS2ep6cBHV7rSYa+lycCU4MjfbQXjXflobpLbJ8SwU2m+PPzkHax2u2z9GIrWPg8WoUHOo9iQvQNPvupP8O7dPFMTvXchU9tlH8b/fs8fxCttdm489teHaQsrd+8y0rVrdoCd8YFutQpBdder1eF0cFdeGhjDZ75nS4gmgMGCFpAKXD/w6/xzI+fQunF7aKVnISSWmuQ+lSPuIANAu77hvDM8CSGh/+AQ03bkDixF60/1RdLKXEj6nvk/knU5V+mLpBbRcek99F2DIndQ221eBJF2FwokzYurGsaQ32B+knFfp6MLz+FQ89Zx/nJN+rx2RyX2CmCy4OiBV7wLRx8xtr3XG8bShNFT+SJp1RQUt59IZbq1ZDSa7FPHWMAm1dNfR0ZZfa2TDHJx8k0kxdP/p+dmFhViX8+ZD3/8OE+fPVGEdYeboXXESEyyvusv9MPKpHm2ogdva1w6322jHJ9jOGTeKRM/j124r99vwTR7DFA0IK79Jq12Nz0axy8by28j27BAXHBPvvGmNrnuS8NN6i0yEXIKRcXS1F26g1HamT1Lci6Sq8rl8H9hXqkHa1Ca9tedOzxIvHLovcQYn4e+3ly89YiUV/lkz9diVzZ2xDP87Is6LoLa2+wUjPX5RajVb6IV17FqUuTsFwO2xzyTrkT6cwZOxWm5eYhY9Yp99M4I3soRxtwp0qziWVNNh76qd7nCBC52VkzjHe8Kv629p1Wy3BbM4fC6dwxQNCiWbpEpmXGcWx8HHiXlaJx3zeAZ4bslq+1fP9LMwzhrirFZtEaf/KeUuyeWIu/Kc4L2cJfcnGS+r+3rwen9AV34qd1eFJemMVrUD8nehDfPxz4GlRLXbTxczeJ1yKC0QO1ezGkh1LOPN+Ohyp2qh7M7I3hlO/+WPE3kAFI9iB6/xD4/MPfQu4sAs6xR9eK3lkf0u4+qn7+UEOR3kM0dwwQtHCe34U79aCpGji9p12ljNzpLiTeuAWbxcXRc18mbkizH5OJ3WHd1u+Ce2O1urYmfrkS6z5glZpcuqZIPY+36SbccJ31PDl31KD1P0QLO3EtPnu76HqIHsRn1vhf52e+5299p23ciYp08fOPlvoec51b9DJ6WnF4Vh9BuBCXqjGSnbhT91ZaBjOwrnyt1YPIvcj3/Kn3HZzhMxZTnXpdDlYvw/IkebfYq/jF0T5VfnSEOSaaOwYIWjBn3gCS81bpzz2kIKO4Fjse3WWlgy7Ow1c7+/DV4iwkq/2SFx3ywh2GpR/bgr+5cfregzLleVy4Nq8SW/NlL+VCrPnbo9j3t1uQ4QgyQz/o8fcOLs7C1u8Mof72tbjW+kWQ+ME8fPZv6/EXf2Jth+cy5N7xFDbfmGJtJq7C0neJv8/n2nCwoRK5H3TkyB4/CO8sI0TGp8Wx88bQ/Cl5J9Y2HEtvwGYR2I6/vLAfS6TYxs9BxIHz9TkIik/8HETsYA+CiIiMGCCIiMiIAYKIiIwYIIiIyIgBgoiIjBggiIjIiAGCiIiMGCCIiMiIH5SLA/KDcv/zy9P4X392uS4hWji/+H+v4OoPXcgPysUABog4IANE/1Ov4D3LTPMIEM2v3518E1m3XM4AEQMYIOIAv2qDFhO/aiN2cAyCiIiMGCCIiMiIAYKIiIwYIIiIyIgBgoiIjBggiIjIiAGCiIiMGCCIiMiIAYKIiIwYIIiIyIgBgoiIjBggiIjIiAGCiIiMGCAofIN1SE1N8C/N/XrH7Ex0FiO1fC8m9DYRRSYGCArP+F5s31CDiv2TGB4Wy/5auFem2DvRUT73gDF/IuV1EMUGBggKy8SRNnhQizXpuiC9GjsKXXpjdhIL2zDctBGcnYIosjFAUFgSkzPFvzU4PGhtO3mbk1DVJVaasgNST95msS5TSXZqSpSrMmd6SvZMxGO8Mu1kp64C0k+6V2DvU0sdvHqvk+l1GNNZ6vXIY/SjRTxue7njuaf0PqzH+PYzNUZxhAGCwiN6DPvKgcYN8kJZjI5xXS5klI2hvkCslPdZ6aeyLGuH0ob7+/J85Rllk+o4AbpKsRs7rccM96FCbN/faT2BuuijFYfsfaLM3bAFGWpvINPrSCysUsc74Ahs3r4a8Zg8/zHy7ecWrw0iuPiCgAwO2YCdVpP7U0uRI/b/Xu0nim0MEBQ2eXEfHpYX4XZU5Zpa2wZdmdgcEDBMiuBebaersrBGBBDP8RGx3o/DTSIg5OfpdJRzX7isn2nss1+rPGYR6ov8rykt2Z8qyyhqhVsHlInOejQWtGK9nVYTrP1teP51XUAUwxggSHCkUWZMobiwrkkEiv21QFN9QE/CqCAFK/Tq7KUgWfQIPN09vha9Chi+wfHwqIt6U4+VlhrsERf9YmSFGj5xpSBNryoiWOQ4U0y5pfDoXUSxjgGChCxs1SmUsAePxYXUrVcXjgxGVsrJukhno7G8b/aD4648uAus8ROZXvL3SAzGRzCkVxXRg7DSW86lDWmX6P1EMYwBgsIjB5MdKSVvu2hJ+1riLiSniv+GR+Z9AFeleewxBblMm64K9TpcyMovQmNfnUov+dNZU1m/l5VWsscv7PEQaaKzbuZeE1GMYICg8IiWtce+O0gsJcOiZe3obWSUOVv65ruM5szxvHLZ7rhgBwv1OhJXF8PdVCOCTRXWBcUHa+DdWnavHHP0omTPqg9plUm+/TndQLLaRxT7EiYFvU4x6ujPTuHFkbPIuDms5FFkk7eobhhAfW/blAv99OTtskkY3TSJrb5BZ/9dSv4yOlfepydwVcoSrPrTS3UJRSv2ICiiyc8xOHsME6MD4t9MOG48Cs/gLlR1OT7oR0QzYoCgyCY/oOdM8VRmYt9wtfFzEGb6g3YbMMufIyKmmOJATKWYKOIxxRQ72IMgIiIjBggiIjJigCAiIiMGCCIiMmKAICIiIwYIIiIyYoAgIiIjBggiIjJigCAiIiMGCCIiMmKAICIiIwYICp/8qm39pXlqCWdOagP5Da0zT20ayawpWlsG9eacWceZbn6LSONtFu97VL93NBsMEBQeOaPchhpU7Nczu+2vdcwNrb8xdY4Bg8KkAnQxZ7SjRcMAQWGZONIGDxzzKaRXz35uaC2xsC38ua8jkjWHNycZoljHAEFhSZTzMsCa+D+YtzkJVV1ixZ4aVPckfOkIOzUlylWZMz0leybiMV6ZdpLlcglIYejeib1PLaGmNLVSNr7HOXo0vudVi7MV7k/z2I9pOWBoqdut9/8Ur3fKMXTazHj86Z47yHR/C92DA9pRlRt8nKDf2/H3s16X+HvJn1f7mrF3Sm/P2QMMOtZ0r5diHgMEhUf0GPaV2/M3B140MsrGUF8gVsr7rPRTWZa1Q2nD/X15vvKMskl1nABdpdiNndZjhq05pe/XeXkVfNCKQ/Y+UeZu2GKc+MfbnI3GAvux/tchL9Al0K9NLvszxUU26MLXvQ2Hs639W9dvEb+PuBC3OwJMn7g4y/msP7IRO3pb4dblkjy+NZGR4/j6Z8N6bqdQfwuXeN79teIBRajvlfvsKVflBd2aNtV+jn2ppcgJCLID2N0O3Cv3N5Vh4yZxnKZ6/2sY74GnSxy3SP69rN6R71jlMiDN8xzjFDUYIChs8uI+PCyDgW7FBrRCQ+jKxOaAgGFSBPdqO12VhTUigHiOj4j1fhxuEgEhP0+no5z7plqxskg8Xxv6nRdf0XLe3WRf/LR0KwB4jvgf6EmtcqSMXFinLqI91oXRdAyb2gdU7HfMVieCqQpOYT53oFB/C7OJznoVFNc70l0ZRSKABf0d3EWOlF7Qa/C2l8Ijg58hY5iRLYMSxSsGCBIcaYWAlqeJuHg2iUAhW7POVmgoBSlYoVdnLwXJomfi6e7Rr0kHDN/geCA1tqFa6MG9HDstYy86JeYw5ZjqImql1NT4S4gLqKVomjmyZ37ucyZ6GTm+44slV1zw9S5L8BzeVgC0/q7ybxoYxALSZSqtNYDRmd5nikkMECQ40grhDh67UgLSLAtDBiMrzWJdALPRWN43/eC4bL2L3+NQAxypEXEBVGmZwGX6QXbrItq4pxj3V8Lce/Bpn+YCOpfnniVnWs232CmoEGQARCnuLxc9EEfwk8HBmS471CB6ZRS3GCAoPHKQ0znoK9MSBcXIUhcWF5JTxX/DIzP0PmZPpVDssQ25zJiusliD6oJrIzbLPPqDjp6R+F1awvnsQXqeCE7tjt/TQB1fjs048vT28c/luU1UUA4MRomFVQFjNtJEZ93MPTvxnmXlF8Ejfr+K7KC/qa/X148DxzPVuI/NSuON4AW9TbGNAYLCMz4Cj32XklhKhkWr1dHbyChztvTneVDT8bxyCfXBsoC7hdRnNqxxATUwLgdu7X25bUCy9TPTy8J60YKu2DR9r8oaeK9BieH4c39uAxFw7hWvx7pRwP47yN5fH9Iqk6zjiyWnO7ynUMElaPzCDjjW6+3BmrJqrJFBTg+6JxbuVKm3EvEev6ZKKJYlTAp6nWLU0Z+dwosjZ5Fxc1jJo8gmbzfdMID63hlSKHTeeJ+ewFUpS7DqTy/VJRSt2IOgiCZz4s4ew8TogPg3eNCViBYCAwRFNjmW4EyfqAFUxy2lRLRgmGKKAzGVYqKIxxRT7GAPgoiIjBggiIjIiAGCiIiMGCCIiMiIAYKIiIwYIIiIyIgBgoiIjBggiIjIiB+UiwPyg3LPD5/G//qzy3UJ0cL5xf97BR9IvZAflIsBDBBxQAaI/s5X8J5lF+gSooXzu5NvIqvwcgaIGMAAEQf4VRu0mPhVG7GDYxBERGTEAEFEREYMEEREZMQAQURERgwQRERkxABBRERGDBBERGTEz0HEAftzEEsvfqcuIVo4Z954i5+DiBEMEHFABog3Xn9LbxEtvIsveScDRAxggCAiIiOOQRARkQHw/wOQLcMZ0G6lTgAAAABJRU5ErkJggg==;" vertex="1" parent="1">
                    <mxGeometry width="392" height="604" as="geometry"/>
                </mxCell>
            </root>
        </mxGraphModel>
    </diagram>
</mxfile>